<?xml version="1.0" encoding="UTF-8" standalone="no"?>
<!-- Created with Inkscape (http://www.inkscape.org/) -->

<svg
   xmlns:dc="http://purl.org/dc/elements/1.1/"
   xmlns:cc="http://creativecommons.org/ns#"
   xmlns:rdf="http://www.w3.org/1999/02/22-rdf-syntax-ns#"
   xmlns:svg="http://www.w3.org/2000/svg"
   xmlns="http://www.w3.org/2000/svg"
   xmlns:sodipodi="http://sodipodi.sourceforge.net/DTD/sodipodi-0.dtd"
   xmlns:inkscape="http://www.inkscape.org/namespaces/inkscape"
   width="744.09448819"
   height="1052.3622047"
   id="svg5306"
   version="1.1"
   inkscape:version="0.48.0 r9654"
   sodipodi:docname="drawing-1.svg">
  <defs
     id="defs5308" />
  <sodipodi:namedview
     id="base"
     pagecolor="#ffffff"
     bordercolor="#666666"
     borderopacity="1.0"
     inkscape:pageopacity="0.0"
     inkscape:pageshadow="2"
     inkscape:zoom="0.35"
     inkscape:cx="375"
     inkscape:cy="520"
     inkscape:document-units="px"
     inkscape:current-layer="layer1"
     showgrid="false"
     inkscape:window-width="1084"
     inkscape:window-height="731"
     inkscape:window-x="0"
     inkscape:window-y="44"
     inkscape:window-maximized="0" />
  <metadata
     id="metadata5311">
    <rdf:RDF>
      <cc:Work
         rdf:about="">
        <dc:format>image/svg+xml</dc:format>
        <dc:type
           rdf:resource="http://purl.org/dc/dcmitype/StillImage" />
        <dc:title></dc:title>
      </cc:Work>
    </rdf:RDF>
  </metadata>
  <g
     inkscape:label="Layer 1"
     inkscape:groupmode="layer"
     id="layer1">
    <path
       style="fill:#000000;fill-opacity:1;stroke:#000000;stroke-width:1.18745077px;stroke-linecap:butt;stroke-linejoin:miter;stroke-opacity:1;enable-background:new"
       d="M 356.75 205.875 C 356.75 205.875 356.5125 212.06024 356.1875 220.4375 C 355.87205 212.15493 355.625 206.34375 355.625 206.34375 C 355.625 206.34375 337.69627 206.0608 321.625 249.59375 C 316.78382 262.71106 309.08526 233.89401 284.4375 234.59375 C 271.20333 320.46253 309.13756 343.79091 316.0625 386.875 C 311.88774 407.70608 295.24061 429.61504 265.375 395 C 242.33774 363.697 245.35499 288.96678 203.25 283.125 C 203.25 283.125 209.20467 313.19089 191.78125 326.84375 C 177.7044 337.8756 141.28125 318.40625 141.28125 318.40625 L 276.8125 453.75 C 276.8125 453.75 343.90605 442.05935 356.375 394.3125 C 369.78005 440.75871 435.9375 452.1875 435.9375 452.1875 L 572.09375 317.4375 C 572.09375 317.4375 535.45454 336.82707 521.3125 325.84375 C 503.81182 312.25246 509.84375 282.15625 509.84375 282.15625 C 467.54801 287.97146 470.57617 362.36781 447.4375 393.53125 C 417.43667 427.99104 400.69408 406.17586 396.5 385.4375 C 403.45633 342.54754 441.57578 319.3274 428.28125 233.84375 C 403.52483 233.14594 395.76916 261.99564 390.90625 248.9375 C 374.76255 205.6035 356.75 205.875 356.75 205.875 z M 572.25 317.4375 L 436.875 452.96875 C 436.875 452.96875 450.56993 531.68507 508.9375 534.46875 C 455.92601 542.22184 443.25 615.71875 443.25 615.71875 L 578 751.875 C 578 751.875 558.57869 715.26656 569.5625 701.125 C 583.15402 683.62407 613.28125 689.625 613.28125 689.625 C 607.46459 647.3295 533.03965 650.35862 501.875 627.21875 C 467.41449 597.21937 489.23015 580.50634 509.96875 576.3125 C 552.85847 583.26787 576.08005 621.3551 661.5625 608.0625 C 662.26272 583.30439 633.41084 575.58262 646.46875 570.71875 C 689.80275 554.57625 689.53125 536.5625 689.53125 536.5625 C 689.53125 536.5625 655.70959 535.0947 615.5625 534.09375 C 653.42357 533.11257 684.28125 531.78125 684.28125 531.78125 C 684.28125 531.78125 684.55358 513.85107 641.03125 497.78125 C 627.91539 492.9391 656.73147 485.24151 656.03125 460.59375 C 570.16248 447.36006 546.86413 485.29453 503.78125 492.21875 C 482.95089 488.04398 461.00995 471.39686 495.625 441.53125 C 526.92727 418.4952 601.6592 421.51172 607.5 379.40625 C 607.5 379.40625 577.43555 385.39024 563.78125 367.96875 C 552.75157 353.89045 572.25 317.4375 572.25 317.4375 z M 141.25 318.5625 C 141.25 318.5625 160.67131 355.17094 149.6875 369.3125 C 136.09598 386.81342 106 380.8125 106 380.8125 C 111.81666 423.10799 186.21035 420.07887 217.375 443.21875 C 251.83551 473.21813 230.01985 489.93116 209.28125 494.125 C 166.39153 487.16964 143.16995 449.0824 57.6875 462.375 C 56.98728 487.13311 85.83915 494.85487 72.78125 499.71875 C 29.44725 515.86125 29.71875 533.875 29.71875 533.875 C 29.71875 533.875 61.420346 535.25349 99.875 536.25 C 60.423407 537.23783 27.75 538.65625 27.75 538.65625 C 27.75 538.65625 27.47767 556.58643 71 572.65625 C 84.11586 577.49839 55.29978 585.19598 56 609.84375 C 141.86877 623.07743 165.19837 585.14296 208.28125 578.21875 C 229.11161 582.39351 251.02129 599.04063 216.40625 628.90625 C 185.10397 651.9423 110.37205 648.92578 104.53125 691.03125 C 104.53125 691.03125 134.5957 685.04727 148.25 702.46875 C 159.27968 716.54705 139.78125 753 139.78125 753 L 275.15625 617.46875 C 275.15625 617.46875 262.12323 542.60496 207.34375 536.3125 C 262.86293 530.94013 276 454.71875 276 454.71875 L 141.25 318.5625 z M 442.4375 616.6875 C 442.4375 616.6875 363.23374 630.46693 360.9375 689.3125 C 360.69604 694.84207 360.53408 701.26276 360.4375 707.65625 L 360.4375 751.09375 C 361.11357 805.92899 363.625 864.09375 363.625 864.09375 C 363.625 864.09375 381.55373 864.3767 397.625 820.84375 C 402.46618 807.72644 410.16473 836.54349 434.8125 835.84375 C 448.04667 749.97498 410.11244 726.64659 403.1875 683.5625 C 407.36227 662.73142 424.00938 640.82246 453.875 675.4375 C 476.91226 706.7405 473.89501 781.47073 516 787.3125 C 516 787.3125 510.04533 757.2466 527.46875 743.59375 C 541.5456 732.5619 578 752.03125 578 752.03125 L 442.4375 616.6875 z M 276.09375 618.25 L 139.9375 753 C 139.9375 753 176.57671 733.61043 190.71875 744.59375 C 208.21944 758.18503 202.1875 788.28125 202.1875 788.28125 C 244.48323 782.46603 241.48633 708.06968 264.625 676.90625 C 294.62583 642.44646 311.33717 664.26164 315.53125 685 C 308.57492 727.88996 270.45547 751.11009 283.75 836.59375 C 308.50642 837.29155 316.26209 808.44185 321.125 821.5 C 337.2687 864.834 355.28125 864.5625 355.28125 864.5625 C 355.28125 864.5625 356.99569 825.03623 357.96875 780.65625 L 357.96875 690.5625 C 355.67493 631.97939 276.09375 618.25 276.09375 618.25 z "
       id="path8466" />
  </g>
</svg>
