<?xml version="1.0" encoding="UTF-8" standalone="no"?>
<!-- Created with Inkscape (http://www.inkscape.org/) -->

<svg
   xmlns:dc="http://purl.org/dc/elements/1.1/"
   xmlns:cc="http://creativecommons.org/ns#"
   xmlns:rdf="http://www.w3.org/1999/02/22-rdf-syntax-ns#"
   xmlns:svg="http://www.w3.org/2000/svg"
   xmlns="http://www.w3.org/2000/svg"
   xmlns:sodipodi="http://sodipodi.sourceforge.net/DTD/sodipodi-0.dtd"
   xmlns:inkscape="http://www.inkscape.org/namespaces/inkscape"
   width="744.09448819"
   height="1052.3622047"
   id="svg5306"
   version="1.1"
   inkscape:version="0.48.0 r9654"
   sodipodi:docname="drawing-2.svg">
  <defs
     id="defs5308" />
  <sodipodi:namedview
     id="base"
     pagecolor="#ffffff"
     bordercolor="#666666"
     borderopacity="1.0"
     inkscape:pageopacity="0.0"
     inkscape:pageshadow="2"
     inkscape:zoom="0.98994949"
     inkscape:cx="375"
     inkscape:cy="522.87157"
     inkscape:document-units="px"
     inkscape:current-layer="layer1"
     showgrid="false"
     inkscape:window-width="1084"
     inkscape:window-height="731"
     inkscape:window-x="0"
     inkscape:window-y="44"
     inkscape:window-maximized="0" />
  <metadata
     id="metadata5311">
    <rdf:RDF>
      <cc:Work
         rdf:about="">
        <dc:format>image/svg+xml</dc:format>
        <dc:type
           rdf:resource="http://purl.org/dc/dcmitype/StillImage" />
        <dc:title></dc:title>
      </cc:Work>
    </rdf:RDF>
  </metadata>
  <g
     inkscape:label="Layer 1"
     inkscape:groupmode="layer"
     id="layer1">
    <path
       style="fill:#000000;fill-opacity:1"
       d="m 385.15733,776.85103 c -0.0105,-1.13591 -0.62374,-1.51413 -1.90973,-1.17784 -1.26243,0.33014 -4.71612,-1.6787 -10.35407,-6.02241 -27.26972,-21.00975 -60.93288,-34.05347 -100.88875,-39.09212 -11.14696,-1.40569 -55.8338,-3.19896 -70.54668,-2.831 l -11.45277,0.28642 -2.56746,-2.98486 c -2.38832,-2.77659 -2.52507,-3.48641 -1.95983,-10.17319 0.73667,-8.71472 -0.90576,-57.2589 -2.38028,-70.35265 -4.1694,-37.0242 -16.30314,-69.73501 -36.41687,-98.17459 -6.77731,-9.58269 -9.04628,-13.55918 -8.64587,-15.15229 0.29858,-1.18798 3.79164,-6.70564 7.76234,-12.26148 21.92551,-30.67832 33.41131,-60.52237 38.29363,-99.50003 1.34788,-10.76066 3.18556,-56.27973 2.89076,-71.60355 -0.30357,-15.77982 -1.03931,-15.26248 21.74787,-15.29197 24.5541,-0.0318 56.07903,-1.64665 68.9516,-3.53205 37.31919,-5.46604 66.57886,-17.38368 95.58179,-38.93105 4.44317,-3.301 8.65629,-6.00182 9.36247,-6.00182 0.70619,0 4.17505,2.12933 7.70856,4.73185 31.82818,23.44218 59.57669,34.65477 99.713,40.29193 12.58953,1.76821 45.73577,3.41083 69.44207,3.44133 22.1616,0.0285 20.8266,-1.15736 20.6969,18.38434 -0.147,22.14058 1.6811,59.97172 3.4849,72.11969 2.1007,14.14737 7.327,34.69141 12.0595,47.40401 6.3436,17.04049 13.9731,30.40204 30.8591,54.04316 2.1825,3.05571 3.9786,6.0104 3.9912,6.56599 0.013,0.55558 -3.4014,5.74948 -7.5865,11.542 -29.678,41.07645 -39.8429,81.09099 -39.8578,156.90093 0,22.64087 -0.1184,24.10483 -2.025,26.01143 -1.1111,1.11117 -2.8158,2.04662 -3.788,2.07878 -0.9723,0.0321 -10.4046,0.0123 -20.9607,-0.0441 -69.33525,-0.37084 -116.45772,11.31712 -153.35492,38.03718 -6.00789,4.35076 -12.14456,8.59233 -13.63706,9.42571 -1.4925,0.83337 -3.0476,1.9698 -3.45579,2.52538 -0.42483,0.57826 -0.74875,0.29477 -0.75761,-0.66304 l 0,-4e-5 z"
       id="path5876-4"
       inkscape:connector-curvature="0"
       sodipodi:nodetypes="csssscssssssssssssssssssccscccssscccc" />
  </g>
</svg>
