<?xml version="1.0" encoding="UTF-8" standalone="no"?>
<!-- Created with Inkscape (http://www.inkscape.org/) -->

<svg
   xmlns:dc="http://purl.org/dc/elements/1.1/"
   xmlns:cc="http://creativecommons.org/ns#"
   xmlns:rdf="http://www.w3.org/1999/02/22-rdf-syntax-ns#"
   xmlns:svg="http://www.w3.org/2000/svg"
   xmlns="http://www.w3.org/2000/svg"
   xmlns:sodipodi="http://sodipodi.sourceforge.net/DTD/sodipodi-0.dtd"
   xmlns:inkscape="http://www.inkscape.org/namespaces/inkscape"
   width="744.09448819"
   height="1052.3622047"
   id="svg5306"
   version="1.1"
   inkscape:version="0.48.0 r9654"
   sodipodi:docname="drawing-3.svg">
  <defs
     id="defs5308" />
  <sodipodi:namedview
     id="base"
     pagecolor="#ffffff"
     bordercolor="#666666"
     borderopacity="1.0"
     inkscape:pageopacity="0.0"
     inkscape:pageshadow="2"
     inkscape:zoom="0.98994949"
     inkscape:cx="375"
     inkscape:cy="522.87157"
     inkscape:document-units="px"
     inkscape:current-layer="layer1"
     showgrid="false"
     inkscape:window-width="1084"
     inkscape:window-height="731"
     inkscape:window-x="0"
     inkscape:window-y="44"
     inkscape:window-maximized="0" />
  <metadata
     id="metadata5311">
    <rdf:RDF>
      <cc:Work
         rdf:about="">
        <dc:format>image/svg+xml</dc:format>
        <dc:type
           rdf:resource="http://purl.org/dc/dcmitype/StillImage" />
        <dc:title></dc:title>
      </cc:Work>
    </rdf:RDF>
  </metadata>
  <g
     inkscape:label="Layer 1"
     inkscape:groupmode="layer"
     id="layer1">
    <path
       style="fill:#000000;stroke:none"
       d="M 391.0625 302.375 C 390.02927 302.36975 389.375 302.46875 389.375 302.46875 L 389.375 302.6875 C 385.99829 302.88238 380.27704 304.16986 377.125 310.375 C 373.86318 316.79684 378.28125 326.15625 378.28125 326.15625 C 378.41564 325.94649 371.48649 319.10931 364.71875 319.25 C 355.76891 319.43618 352.625 328.125 352.625 328.125 C 352.625 328.125 364.24653 330.75055 372.0625 340.5625 C 380.18695 350.76177 381.46875 363.84375 381.46875 363.84375 C 381.46875 363.84375 367.26168 345.93014 355.5625 345.625 C 343.43207 345.30863 340.65709 352.08398 340.46875 358.3125 C 340.2802 364.54101 344.72877 370.85934 352.1875 370.9375 C 361.85181 371.03869 364.25 360.625 364.25 360.625 C 364.25 360.625 375.20841 366.09048 379.96875 385.5 C 383.33908 399.24129 380.41356 414.8013 379.09375 416.5 C 377.77394 418.19869 375.32255 404.62076 367.53125 398.5625 C 359.11074 392.01494 354.15625 392.6875 354.15625 392.6875 C 354.15625 392.6875 351.39271 398.82405 353.96875 404.25 C 355.66023 407.81397 361.5 413.03125 361.5 413.03125 C 361.5 413.03125 355.81855 410.5323 351.125 410.71875 C 344.45936 410.98337 340.40625 417.84375 340.40625 417.84375 C 340.40625 417.84375 342.16977 423.6167 347.21875 426.28125 C 351.92714 428.7661 357.53125 428.40625 357.53125 428.40625 C 357.53125 428.40625 351.48518 429.65641 348.375 431.6875 C 345.26482 433.71856 341.90625 439.25 341.90625 439.25 C 341.90625 439.25 352.80424 437.93359 357.96875 442.53125 C 366.22097 449.87765 364.36909 460.46555 359.46875 466.5625 C 354.5684 472.65945 341.23638 478.92041 332.84375 468.09375 C 327.7334 463.4358 329.46875 451.9375 329.46875 451.9375 C 329.46875 451.9375 323.96636 455.38652 321.9375 458.5 C 319.90844 461.6135 318.65625 467.65625 318.65625 467.65625 C 318.65625 467.65625 319.01341 461.99479 316.53125 457.28125 C 313.86956 452.22686 308.09375 450.53125 308.09375 450.53125 C 308.09375 450.53125 301.26416 454.51485 301 461.1875 C 300.81346 465.88623 303.40625 471.65625 303.40625 471.65625 C 303.40625 471.65625 298.09132 465.72457 294.53125 464.03125 C 289.111 461.45322 283 464.28125 283 464.28125 C 283 464.28125 282.30307 469.25787 288.84375 477.6875 C 294.89542 485.48721 308.47815 487.83503 306.78125 489.15625 C 305.08435 490.47743 289.53914 493.49886 275.8125 490.125 C 256.42372 485.35945 250.96875 474.3125 250.96875 474.3125 C 250.96875 474.3125 261.35109 472.01836 261.25 462.34375 C 261.1718 454.87698 254.87801 450.34253 248.65625 450.53125 C 242.43448 450.71998 235.65264 453.57542 235.96875 465.71875 C 236.27363 477.43051 254.15625 491.65625 254.15625 491.65625 C 254.15625 491.65625 241.18821 490.352 231 482.21875 C 221.1985 474.39435 218.5 462.78125 218.5 462.78125 C 218.5 462.78125 209.81094 465.88421 209.625 474.84375 C 209.48459 481.61866 216.32165 488.47831 216.53125 488.34375 C 216.53125 488.34375 207.25867 484.01578 200.84375 487.28125 C 191.648 491.96223 193.125 502.21875 193.125 502.21875 L 193.5 502.21875 C 193.94623 505.62847 195.54879 510.40265 201.03125 513.1875 C 207.45319 516.44948 216.84375 512.03125 216.84375 512.03125 C 216.63394 511.89696 209.76545 518.85738 209.90625 525.625 C 210.09279 534.57494 218.8125 537.6875 218.8125 537.6875 C 218.8125 537.6875 221.43807 526.06599 231.25 518.25 C 241.44925 510.12544 254.5 508.84375 254.5 508.84375 C 254.5 508.84375 236.61758 523.05078 236.3125 534.75 C 235.99598 546.88032 242.77142 549.65523 249 549.84375 C 255.22838 550.03228 261.54678 545.58377 261.625 538.125 C 261.72529 528.46075 251.3125 526.0625 251.3125 526.0625 C 251.3125 526.0625 256.77806 515.10423 276.1875 510.34375 C 289.92878 506.97351 305.4888 509.93023 307.1875 511.25 C 308.88621 512.56983 295.30829 514.98993 289.25 522.78125 C 282.70249 531.20185 283.375 536.15625 283.375 536.15625 C 283.375 536.15625 289.51144 538.91901 294.9375 536.34375 C 298.50139 534.65224 303.71875 528.8125 303.71875 528.8125 C 303.71875 528.8125 301.21991 534.4938 301.40625 539.1875 C 301.67082 545.853 308.5 549.9375 308.5 549.9375 C 308.5 549.9375 314.27301 548.14272 316.9375 543.09375 C 319.42247 538.38525 319.09375 532.8125 319.09375 532.8125 C 319.09375 532.8125 320.34394 538.82733 322.375 541.9375 C 324.40607 545.04764 329.90625 548.40625 329.90625 548.40625 C 329.90625 548.40625 328.62107 537.5083 333.21875 532.34375 C 340.56516 524.09154 351.153 525.94341 357.25 530.84375 C 363.347 535.74409 369.6079 549.07617 358.78125 557.46875 C 354.1232 562.57913 342.625 560.84375 342.625 560.84375 C 342.625 560.84375 346.07411 566.34611 349.1875 568.375 C 352.30109 570.40392 358.34375 571.65625 358.34375 571.65625 C 358.34375 571.65625 352.65091 571.29906 347.9375 573.78125 C 342.88311 576.44294 341.1875 582.21875 341.1875 582.21875 C 341.1875 582.21875 345.17109 589.04817 351.84375 589.3125 C 356.54252 589.49876 362.34375 586.9375 362.34375 586.9375 C 362.34375 586.9375 356.38079 592.2211 354.6875 595.78125 C 352.10946 601.20139 354.96875 607.34375 354.96875 607.34375 C 354.96875 607.34375 359.94546 608.00929 368.375 601.46875 C 376.17472 595.41698 378.52254 581.86562 379.84375 583.5625 C 381.16497 585.25937 384.18624 600.77342 380.8125 614.5 C 376.04694 633.88872 365 639.34375 365 639.34375 C 365 639.34375 362.67453 628.96129 353 629.0625 C 345.53324 629.1406 340.99875 635.43441 341.1875 641.65625 C 341.37604 647.8781 344.23154 654.65978 356.375 654.34375 C 368.08682 654.03895 382.3125 636.15625 382.3125 636.15625 C 382.3125 636.15625 381.03953 649.12415 372.90625 659.3125 C 365.08186 669.11394 353.46875 671.84375 353.46875 671.84375 C 353.46875 671.84375 356.57179 680.53287 365.53125 680.71875 C 372.30622 680.85936 379.16584 673.99079 379.03125 673.78125 C 379.03125 673.78125 374.70312 683.08502 377.96875 689.5 C 382.64966 698.69567 392.875 697.21875 392.875 697.21875 L 392.875 697 C 393.06575 697.00766 393.19305 697.03097 393.4375 697.03125 C 396.53344 697.03725 403.24287 696.21665 406.75 689.3125 C 410.01182 682.89066 405.59375 673.5 405.59375 673.5 C 405.45936 673.70977 412.41976 680.54694 419.1875 680.40625 C 428.13734 680.22012 431.25 671.53125 431.25 671.53125 C 431.25 671.53125 419.62847 668.90572 411.8125 659.09375 C 403.68804 648.89448 402.40625 635.84375 402.40625 635.84375 C 402.40625 635.84375 416.61332 653.72611 428.3125 654.03125 C 440.44292 654.34762 443.2179 647.57227 443.40625 641.34375 C 443.59479 635.11525 439.14624 628.79692 431.6875 628.71875 C 422.0232 628.61756 419.625 639.03125 419.625 639.03125 C 419.625 639.03125 408.6666 633.56578 403.90625 614.15625 C 400.53592 600.41495 403.49269 584.85494 404.8125 583.15625 C 406.13231 581.45756 408.55245 595.03548 416.34375 601.09375 C 424.76426 607.6413 429.71875 606.96875 429.71875 606.96875 C 429.71875 606.96875 432.48228 600.83221 429.90625 595.40625 C 428.21476 591.84228 422.375 586.625 422.375 586.625 C 422.375 586.625 428.05645 589.12395 432.75 588.9375 C 439.41565 588.67289 443.46875 581.84375 443.46875 581.84375 C 443.46875 581.84375 441.70522 576.03954 436.65625 573.375 C 431.94785 570.89014 426.34375 571.25 426.34375 571.25 C 426.34375 571.25 432.38982 569.99984 435.5 567.96875 C 438.61018 565.93768 441.96875 560.4375 441.96875 560.4375 C 441.96875 560.4375 431.07076 561.72267 425.90625 557.125 C 417.65402 549.77861 419.5059 539.1907 424.40625 533.09375 C 429.3066 526.99681 442.63861 520.73583 451.03125 531.5625 C 456.1416 536.22044 454.40625 547.71875 454.40625 547.71875 C 454.40625 547.71875 459.90865 544.26972 461.9375 541.15625 C 463.96656 538.04274 465.21875 532 465.21875 532 C 465.21875 532 464.86158 537.6927 467.34375 542.40625 C 470.00544 547.46064 475.78125 549.15625 475.78125 549.15625 C 475.78125 549.15625 482.61084 545.14139 482.875 538.46875 C 483.06154 533.77001 480.46875 528 480.46875 528 C 480.46875 528 485.78367 533.96292 489.34375 535.65625 C 494.764 538.23427 500.875 535.375 500.875 535.375 C 500.875 535.375 501.57193 530.39839 495.03125 521.96875 C 488.97957 514.16905 475.39685 511.82122 477.09375 510.5 C 478.79065 509.17881 494.33587 506.1574 508.0625 509.53125 C 527.45128 514.29681 532.90625 525.34375 532.90625 525.34375 C 532.90625 525.34375 522.52391 527.66913 522.625 537.34375 C 522.7032 544.81052 528.99699 549.34498 535.21875 549.15625 C 541.44051 548.96753 548.22237 546.11208 547.90625 533.96875 C 547.60137 522.25698 529.71875 508.03125 529.71875 508.03125 C 529.71875 508.03125 542.68678 509.30426 552.875 517.4375 C 562.6765 525.26191 565.375 536.875 565.375 536.875 C 565.375 536.875 574.06406 533.77203 574.25 524.8125 C 574.3904 518.03759 567.55336 511.17795 567.34375 511.3125 C 567.34375 511.3125 576.61632 515.64048 583.03125 512.375 C 592.227 507.69403 590.78125 497.4375 590.78125 497.4375 L 588.78125 497.4375 C 588.33496 494.02779 586.73246 489.25361 581.25 486.46875 C 574.82826 483.20677 565.4375 487.625 565.4375 487.625 C 565.64731 487.75928 572.48435 480.83012 572.34375 474.0625 C 572.15721 465.11256 563.46875 461.96875 563.46875 461.96875 C 563.46875 461.96875 560.84318 473.59025 551.03125 481.40625 C 540.832 489.5308 527.78125 490.8125 527.78125 490.8125 C 527.78125 490.8125 545.66347 476.60547 545.96875 464.90625 C 546.28507 452.77593 539.50963 450.00103 533.28125 449.8125 C 527.05267 449.62398 520.73427 454.07248 520.65625 461.53125 C 520.55395 471.1955 530.96875 473.59375 530.96875 473.59375 C 530.96875 473.59375 525.50339 484.55202 506.09375 489.3125 C 492.35247 492.68274 476.79245 489.72602 475.09375 488.40625 C 473.39504 487.08642 486.97296 484.66632 493.03125 476.875 C 499.57875 468.4544 498.90625 463.5 498.90625 463.5 C 498.90625 463.5 492.76961 460.73724 487.34375 463.3125 C 483.77966 465.00401 478.5625 470.84375 478.5625 470.84375 C 478.5625 470.84375 481.06154 465.16246 480.875 460.46875 C 480.61043 453.80326 473.78125 449.75 473.78125 449.75 C 473.78125 449.75 468.00824 451.51353 465.34375 456.5625 C 462.85898 461.27099 463.1875 466.875 463.1875 466.875 C 463.1875 466.875 461.93731 460.82892 459.90625 457.71875 C 457.87518 454.60861 452.375 451.25 452.375 451.25 C 452.375 451.25 453.66017 462.14795 449.0625 467.3125 C 441.71609 475.56471 431.12825 473.71284 425.03125 468.8125 C 418.93445 463.91216 412.67335 450.58008 423.5 442.1875 C 428.15785 437.07712 439.65625 438.8125 439.65625 438.8125 C 439.65625 438.8125 436.20734 433.31014 433.09375 431.28125 C 429.98036 429.25233 423.9375 428 423.9375 428 C 423.9375 428 429.63014 428.35719 434.34375 425.875 C 439.39814 423.21331 441.09375 417.4375 441.09375 417.4375 C 441.09375 417.4375 437.10996 410.60808 430.4375 410.34375 C 425.73873 410.1575 419.9375 412.75 419.9375 412.75 C 419.9375 412.75 425.90046 407.43515 427.59375 403.875 C 430.17179 398.45486 427.3125 392.34375 427.3125 392.34375 C 427.3125 392.34375 422.33599 391.64695 413.90625 398.1875 C 406.10653 404.23927 403.75871 417.82187 402.4375 416.125 C 401.11628 414.42813 398.09481 398.88283 401.46875 385.15625 C 406.23431 365.76752 417.28125 360.3125 417.28125 360.3125 C 417.28125 360.3125 419.60652 370.69497 429.28125 370.59375 C 436.74801 370.51565 441.2825 364.22184 441.09375 358 C 440.90521 351.77816 438.04951 344.99647 425.90625 345.3125 C 414.19443 345.61732 399.96875 363.5 399.96875 363.5 C 399.96875 363.5 401.24192 350.53209 409.375 340.34375 C 417.19959 330.54231 428.8125 327.84375 428.8125 327.84375 C 428.8125 327.84375 425.70967 319.15463 416.75 318.96875 C 409.97524 318.8282 403.11541 325.66544 403.25 325.875 C 403.25 325.875 407.57793 316.60247 404.3125 310.1875 C 400.80182 303.29075 394.16219 302.39075 391.0625 302.375 z M 391.25 435.125 C 392.82701 454.71895 395.41257 469.63922 409.71875 482.90625 C 421.25655 493.6061 436.28251 498.08177 450.9375 499.96875 C 434.78046 501.71965 421.91899 505.26588 410.3125 517.78125 C 395.11943 534.16427 392.45409 557.53007 391.96875 576.96875 C 390.04953 550.99993 389.75529 532.69414 372.5625 516.75 C 361.2134 506.22525 346.4879 501.72197 332.0625 499.78125 C 348.62909 498.06256 361.7797 494.61421 373.59375 481.875 C 385.6534 468.87082 389.80192 451.47325 391.25 435.125 z "
       id="path4985" />
  </g>
</svg>
