<?xml version="1.0" encoding="UTF-8" standalone="no"?>
<!-- Created with Inkscape (http://www.inkscape.org/) -->

<svg
   xmlns:dc="http://purl.org/dc/elements/1.1/"
   xmlns:cc="http://creativecommons.org/ns#"
   xmlns:rdf="http://www.w3.org/1999/02/22-rdf-syntax-ns#"
   xmlns:svg="http://www.w3.org/2000/svg"
   xmlns="http://www.w3.org/2000/svg"
   xmlns:sodipodi="http://sodipodi.sourceforge.net/DTD/sodipodi-0.dtd"
   xmlns:inkscape="http://www.inkscape.org/namespaces/inkscape"
   width="744.09448819"
   height="1052.3622047"
   id="svg4616"
   version="1.1"
   inkscape:version="0.48.0 r9654"
   sodipodi:docname="New document 8">
  <defs
     id="defs4618" />
  <sodipodi:namedview
     id="base"
     pagecolor="#ffffff"
     bordercolor="#666666"
     borderopacity="1.0"
     inkscape:pageopacity="0.0"
     inkscape:pageshadow="2"
     inkscape:zoom="1.4"
     inkscape:cx="546.42857"
     inkscape:cy="405.71429"
     inkscape:document-units="px"
     inkscape:current-layer="layer1"
     showgrid="false"
     inkscape:window-width="1440"
     inkscape:window-height="831"
     inkscape:window-x="0"
     inkscape:window-y="24"
     inkscape:window-maximized="1" />
  <metadata
     id="metadata4621">
    <rdf:RDF>
      <cc:Work
         rdf:about="">
        <dc:format>image/svg+xml</dc:format>
        <dc:type
           rdf:resource="http://purl.org/dc/dcmitype/StillImage" />
        <dc:title></dc:title>
      </cc:Work>
    </rdf:RDF>
  </metadata>
  <g
     inkscape:label="Layer 1"
     inkscape:groupmode="layer"
     id="layer1">
    <path
       style="fill:#000000;stroke:none"
       d="m 460.25116,507.4375 0,72.29242 52.24582,52.66129 0,-79.19967 -52.24582,-45.75404 z m 113.78786,0 -52.24582,45.75404 0,79.19967 52.24582,-52.66129 0,-72.29242 z m -193.19527,79.45934 45.70211,52.29776 79.19967,0 -52.66129,-52.29776 -72.24049,0 z m 200.36219,0 -52.66129,52.29776 79.19967,0 45.70211,-52.29776 -72.24049,0 z m -154.66008,61.59398 -45.70211,52.24582 72.24049,0 52.66129,-52.24582 -79.19967,0 z m 101.99879,0 52.66129,52.24582 72.24049,0 -45.70211,-52.24582 -79.19967,0 z m -16.04767,6.75145 -52.24582,52.66129 0,72.29242 52.24582,-45.75404 0,-79.19967 z m 9.29622,0 0,79.19967 52.24582,45.75404 0,-72.29242 -52.24582,-52.66129 z"
       id="path4937"
       inkscape:connector-curvature="0" />
  </g>
</svg>
