<?xml version="1.0" encoding="UTF-8" standalone="no"?>
<!-- Created with Inkscape (http://www.inkscape.org/) -->

<svg
   xmlns:dc="http://purl.org/dc/elements/1.1/"
   xmlns:cc="http://creativecommons.org/ns#"
   xmlns:rdf="http://www.w3.org/1999/02/22-rdf-syntax-ns#"
   xmlns:svg="http://www.w3.org/2000/svg"
   xmlns="http://www.w3.org/2000/svg"
   xmlns:sodipodi="http://sodipodi.sourceforge.net/DTD/sodipodi-0.dtd"
   xmlns:inkscape="http://www.inkscape.org/namespaces/inkscape"
   width="744.09448819"
   height="1052.3622047"
   id="svg5306"
   version="1.1"
   inkscape:version="0.48.0 r9654"
   sodipodi:docname="drawing-3.svg">
  <defs
     id="defs5308" />
  <sodipodi:namedview
     id="base"
     pagecolor="#ffffff"
     bordercolor="#666666"
     borderopacity="1.0"
     inkscape:pageopacity="0.0"
     inkscape:pageshadow="2"
     inkscape:zoom="0.98994949"
     inkscape:cx="375"
     inkscape:cy="522.87157"
     inkscape:document-units="px"
     inkscape:current-layer="layer1"
     showgrid="false"
     inkscape:window-width="1084"
     inkscape:window-height="731"
     inkscape:window-x="0"
     inkscape:window-y="44"
     inkscape:window-maximized="0" />
  <metadata
     id="metadata5311">
    <rdf:RDF>
      <cc:Work
         rdf:about="">
        <dc:format>image/svg+xml</dc:format>
        <dc:type
           rdf:resource="http://purl.org/dc/dcmitype/StillImage" />
        <dc:title></dc:title>
      </cc:Work>
    </rdf:RDF>
  </metadata>
  <g
     inkscape:label="Layer 1"
     inkscape:groupmode="layer"
     id="layer1">
    <path
       style="fill:#000000;fill-opacity:1;stroke:none;enable-background:new"
       d="m 366.53641,456.99033 c 0,0 -1.43565,26.79386 1.43497,36.36329 2.87063,9.56943 7.65568,11.48317 1.91375,41.62711 -5.74125,30.14326 -4.30628,38.27704 -4.30628,64.5928 0,26.31575 -5.26315,48.80401 15.78946,51.67464 21.05261,2.87062 20.57451,5.74193 51.19654,2.87062 30.62204,-2.87062 45.45394,7.17758 49.28212,-11.48318 3.8275,-18.66008 -4.78506,-14.3538 -3.82818,-37.32016 0.95755,-22.96635 10.0482,-16.26823 3.82818,-38.75581 -6.22003,-22.48826 -5.26315,-13.8757 -9.09133,-40.19146 -3.8275,-26.31576 -3.8275,-22.48826 -8.61188,-46.41149 -4.78505,-23.92323 9.56943,-32.53579 -18.18198,-28.70829 -27.75141,3.82818 -32.53578,3.82818 -51.67464,2.87131 -19.13886,-0.95688 -27.75073,2.87062 -27.75073,2.87062 z"
       id="path6752"
       inkscape:connector-curvature="0" />
  </g>
</svg>
